<svg width="24" height="24" viewBox="0 0 24 24" fill="none" xmlns="http://www.w3.org/2000/svg">
    <path d="M12 4C7.02923 4 3 7.25144 3 11.2628C3 13.8562 4.6849 16.1342 7.21875 17.4167C7.08115 17.903 6.3326 20.5468 6.30317 20.755C6.30317 20.755 6.285 20.9109 6.38365 20.9702C6.41666 20.9872 6.45272 20.9972 6.48962 20.9995C6.52653 21.0018 6.5635 20.9963 6.59827 20.9835C6.88212 20.9427 9.88673 18.786 10.406 18.4149C10.9341 18.49 11.4668 18.527 12 18.5256C16.9708 18.5256 21 15.2742 21 11.2628C21 7.25144 16.9708 4 12 4Z"
          fill="#3A211F"/>
</svg>
