<?xml version="1.0" standalone="no"?>
<!DOCTYPE svg PUBLIC "-//W3C//DTD SVG 20010904//EN"
 "http://www.w3.org/TR/2001/REC-SVG-20010904/DTD/svg10.dtd">
<svg version="1.0" xmlns="http://www.w3.org/2000/svg"
 width="64.000000pt" height="64.000000pt" viewBox="0 0 64.000000 64.000000"
 preserveAspectRatio="xMidYMid meet">

<g transform="translate(0.000000,64.000000) scale(0.100000,-0.100000)"
fill="#000000" stroke="none">
<path d="M248 618 c-15 -15 -18 -28 -14 -49 4 -20 2 -29 -8 -29 -29 0 -98
-111 -77 -124 5 -3 14 9 20 26 7 18 26 47 43 65 l31 32 38 -31 39 -31 39 31
38 31 31 -32 c17 -18 36 -47 43 -65 6 -17 15 -29 20 -26 21 13 -48 124 -77
124 -10 0 -12 9 -8 29 9 45 -21 69 -86 69 -39 0 -57 -5 -72 -20z m130 -11 c6
-5 12 -17 12 -25 0 -21 -50 -72 -70 -72 -9 0 -28 13 -43 28 -47 49 -31 80 42
80 25 0 52 -5 59 -11z"/>
<path d="M82 388 c-7 -7 -12 -27 -12 -45 l0 -33 68 0 c77 0 92 9 92 57 l0 33
-68 0 c-40 0 -73 -5 -80 -12z m126 -30 c-3 -20 -10 -23 -60 -26 -51 -3 -58 -1
-58 16 0 28 8 32 67 32 51 0 54 -2 51 -22z"/>
<path d="M262 388 c-7 -7 -12 -27 -12 -45 l0 -33 68 0 c77 0 92 9 92 57 l0 33
-68 0 c-40 0 -73 -5 -80 -12z m126 -30 c-3 -20 -10 -23 -60 -26 -51 -3 -58 -1
-58 16 0 28 8 32 67 32 51 0 54 -2 51 -22z"/>
<path d="M442 388 c-7 -7 -12 -27 -12 -45 l0 -33 68 0 c77 0 92 9 92 57 l0 33
-68 0 c-40 0 -73 -5 -80 -12z m126 -30 c-3 -20 -10 -23 -60 -26 -51 -3 -58 -1
-58 16 0 28 8 32 67 32 51 0 54 -2 51 -22z"/>
<path d="M70 267 c0 -18 6 -42 14 -53 8 -10 13 -28 10 -40 -4 -15 2 -26 20
-38 24 -15 28 -15 52 0 18 12 24 23 20 38 -3 12 2 30 10 40 16 22 19 86 4 86
-5 0 -10 -15 -10 -34 0 -38 -21 -66 -50 -66 -29 0 -50 28 -50 66 0 19 -4 34
-10 34 -5 0 -10 -15 -10 -33z m98 -99 c-3 -7 -15 -13 -28 -13 -13 0 -25 6 -27
13 -3 8 6 12 27 12 21 0 30 -4 28 -12z"/>
<path d="M250 267 c0 -18 6 -42 14 -53 8 -10 13 -28 10 -40 -4 -15 2 -26 20
-38 24 -15 28 -15 52 0 18 12 24 23 20 38 -3 12 2 30 10 40 16 22 19 86 4 86
-5 0 -10 -15 -10 -34 0 -38 -21 -66 -50 -66 -29 0 -50 28 -50 66 0 19 -4 34
-10 34 -5 0 -10 -15 -10 -33z m98 -99 c-6 -17 -50 -17 -55 0 -3 8 6 12 27 12
21 0 30 -4 28 -12z"/>
<path d="M430 267 c0 -18 6 -42 14 -53 8 -10 13 -28 10 -40 -4 -15 2 -26 20
-38 24 -15 28 -15 52 0 18 12 24 23 20 38 -3 12 2 30 10 40 16 22 19 86 4 86
-5 0 -10 -15 -10 -34 0 -38 -21 -66 -50 -66 -29 0 -50 28 -50 66 0 19 -4 34
-10 34 -5 0 -10 -15 -10 -33z m98 -99 c-3 -7 -15 -13 -28 -13 -13 0 -25 6 -27
13 -3 8 6 12 27 12 21 0 30 -4 28 -12z"/>
<path d="M32 150 c-32 -20 -33 -22 -30 -83 l3 -62 83 -3 c52 -2 82 1 82 8 0 6
-30 10 -75 10 l-75 0 0 50 c0 46 3 53 30 68 28 16 39 32 23 32 -5 0 -23 -9
-41 -20z"/>
<path d="M212 150 c-32 -20 -33 -22 -30 -83 l3 -62 135 0 135 0 3 62 c3 61 2
63 -30 83 -18 11 -36 20 -40 20 -17 0 -6 -16 22 -32 27 -15 30 -22 30 -68 l0
-50 -120 0 -120 0 0 50 c0 46 3 53 30 68 28 16 39 32 23 32 -5 0 -23 -9 -41
-20z"/>
<path d="M560 163 c0 -5 14 -16 30 -25 27 -15 30 -22 30 -68 l0 -50 -75 0
c-45 0 -75 -4 -75 -10 0 -7 30 -10 83 -8 l82 3 3 62 c3 61 2 63 -30 83 -35 21
-48 25 -48 13z"/>
</g>
</svg>
